<?xml version="1.0" encoding="UTF-8" standalone="no"?>
<!-- Created with Inkscape (http://www.inkscape.org/) -->

<svg
  xmlns:dc="http://purl.org/dc/elements/1.1/"
  xmlns:cc="http://creativecommons.org/ns#"
  xmlns:rdf="http://www.w3.org/1999/02/22-rdf-syntax-ns#"
  xmlns="http://www.w3.org/2000/svg"
  xmlns:sodipodi="http://sodipodi.sourceforge.net/DTD/sodipodi-0.dtd"
  xmlns:inkscape="http://www.inkscape.org/namespaces/inkscape"
  width="200"
  height="220"
  viewBox="0 0 200 220"
  id="svg2"
  version="1.1"
  inkscape:version="0.91 r"
  sodipodi:docname="cat-dairy-free.svg">
  <defs
    id="defs4"/>
  <sodipodi:namedview
    id="base"
    pagecolor="#ffffff"
    bordercolor="#666666"
    borderopacity="1.0"
    inkscape:pageopacity="0.0"
    inkscape:pageshadow="2"
    inkscape:zoom="2.1387281"
    inkscape:cx="120.90519"
    inkscape:cy="91.721179"
    inkscape:document-units="px"
    inkscape:current-layer="layer1"
    showgrid="false"
    units="px"
    showguides="true"
    inkscape:guide-bbox="true"
    inkscape:window-width="1366"
    inkscape:window-height="716"
    inkscape:window-x="0"
    inkscape:window-y="0"
    inkscape:window-maximized="1"/>
  <metadata
    id="metadata7">
    <rdf:RDF>
      <cc:Work
        rdf:about="">
        <dc:format>image/svg+xml</dc:format>
        <dc:type
          rdf:resource="http://purl.org/dc/dcmitype/StillImage"/>
        <dc:title></dc:title>
      </cc:Work>
    </rdf:RDF>
  </metadata>
  <g
    inkscape:label="Vrstva 1"
    inkscape:groupmode="layer"
    id="layer1"
    transform="translate(0,-832.36216)">
    <path
      style="color:#000000;font-style:normal;font-variant:normal;font-weight:normal;font-stretch:normal;font-size:medium;line-height:normal;font-family:sans-serif;text-indent:0;text-align:start;text-decoration:none;text-decoration-line:none;text-decoration-style:solid;text-decoration-color:#000000;letter-spacing:normal;word-spacing:normal;text-transform:none;direction:ltr;block-progression:tb;writing-mode:lr-tb;baseline-shift:baseline;text-anchor:start;white-space:normal;clip-rule:nonzero;display:inline;overflow:visible;visibility:visible;opacity:1;isolation:auto;mix-blend-mode:normal;color-interpolation:sRGB;color-interpolation-filters:linearRGB;solid-color:#000000;solid-opacity:1;fill:#338000;fill-opacity:1;fill-rule:nonzero;stroke:none;stroke-width:2;stroke-linecap:round;stroke-linejoin:round;stroke-miterlimit:4;stroke-dasharray:none;stroke-dashoffset:0;stroke-opacity:1;color-rendering:auto;image-rendering:auto;shape-rendering:auto;text-rendering:auto;enable-background:accumulate"
      d="m 156.27587,853.49104 c -16.29645,-12.61251 -36.7281,-20.12888 -58.889689,-20.12888 l 1e-4,0 C 44.225172,833.36216 1,876.58935 1,929.75045 c 0,0.45356 0.011788,0.9044 0.01806,1.35651 -0.00232,0.19481 -0.011155,0.38632 -0.01204,0.58193 l 0.01806,0 c 0.5164823,26.05123 11.412709,49.59407 28.713412,66.65949 19.062543,17.61362 43.733013,27.59342 67.648789,27.78832 53.161109,0 96.386289,-43.22514 96.386289,-96.38625 0,-6.88356 -0.72983,-13.59856 -2.10701,-20.07672 -4.55129,-21.54029 -18.75255,-42.72056 -35.38969,-56.18269 z"
      id="path4136"/>
    <path
      style="color:#000000;font-style:normal;font-variant:normal;font-weight:normal;font-stretch:normal;font-size:medium;line-height:normal;font-family:sans-serif;text-indent:0;text-align:start;text-decoration:none;text-decoration-line:none;text-decoration-style:solid;text-decoration-color:#000000;letter-spacing:normal;word-spacing:normal;text-transform:none;direction:ltr;block-progression:tb;writing-mode:lr-tb;baseline-shift:baseline;text-anchor:start;white-space:normal;clip-rule:nonzero;display:inline;overflow:visible;visibility:visible;opacity:1;isolation:auto;mix-blend-mode:normal;color-interpolation:sRGB;color-interpolation-filters:linearRGB;solid-color:#000000;solid-opacity:1;fill:#000000;fill-opacity:1;fill-rule:nonzero;stroke:#000000;stroke-width:2;stroke-linecap:round;stroke-linejoin:round;stroke-miterlimit:4;stroke-dasharray:none;stroke-dashoffset:0;stroke-opacity:1;color-rendering:auto;image-rendering:auto;shape-rendering:auto;text-rendering:auto;enable-background:accumulate"
      d="M 34.655834,985.99534 C 21.576298,971.40951 13.505658,952.23398 13.166428,931.13705 c 0.147741,-10.77985 2.89457,-19.38607 7.073503,-25.34422 4.257644,-6.07035 9.826152,-9.52102 16.605178,-10.37045 0.847379,-0.10618 1.721236,-0.16807 2.618702,-0.18261 13.462004,-0.21799 32.355706,10.13189 50.600139,38.77083 20.92998,32.85454 45.91614,46.55679 67.13709,44.25306 3.89868,-0.42325 7.59561,-1.42024 11.03668,-2.9157 -14.97752,23.25502 -41.07686,38.64044 -70.851439,38.64044 -26.638819,-0.8367 -45.383567,-10.845 -62.730447,-27.99306 z"
      id="path4212"/>
    <path
      style="color:#000000;font-style:normal;font-variant:normal;font-weight:normal;font-stretch:normal;font-size:medium;line-height:normal;font-family:sans-serif;text-indent:0;text-align:start;text-decoration:none;text-decoration-line:none;text-decoration-style:solid;text-decoration-color:#000000;letter-spacing:normal;word-spacing:normal;text-transform:none;direction:ltr;block-progression:tb;writing-mode:lr-tb;baseline-shift:baseline;text-anchor:start;white-space:normal;clip-rule:nonzero;display:inline;overflow:visible;visibility:visible;opacity:1;isolation:auto;mix-blend-mode:normal;color-interpolation:sRGB;color-interpolation-filters:linearRGB;solid-color:#000000;solid-opacity:1;fill:#000000;fill-opacity:1;fill-rule:nonzero;stroke:#000000;stroke-width:2;stroke-linecap:round;stroke-linejoin:round;stroke-miterlimit:4;stroke-dasharray:none;stroke-dashoffset:0;stroke-opacity:1;color-rendering:auto;image-rendering:auto;shape-rendering:auto;text-rendering:auto;enable-background:accumulate"
      d="m 180.40213,915.37669 c 0.79993,4.67068 1.22207,9.4715 1.22207,14.37376 0,0.49521 -0.0116,0.98775 -0.0201,1.48092 l -0.0261,0 c 0,1.28008 -0.0404,2.52569 -0.1184,3.74043 -0.003,0.0575 -0.008,0.115 -0.0121,0.17257 -1.25759,18.66559 -11.57914,29.52373 -25.55691,31.04115 -14.92809,1.62058 -36.17505,-8.24403 -55.57868,-38.70261 -18.263784,-28.66926 -38.727629,-42.89524 -57.196062,-44.29518 -2.638351,-0.19999 -5.235123,-0.13826 -7.779853,0.18059 -3.562677,0.44643 -6.961646,1.43814 -10.137686,2.89161 14.730623,-24.43681 41.517645,-40.74941 72.187872,-40.74941 18.096549,0 34.828269,5.69767 48.543309,15.37309 15.46982,12.05262 31.26535,37.06039 34.47264,54.49308 z"
      id="path4210"/>
    <path
      style="fill:#ffffff;fill-rule:evenodd;stroke:none;stroke-width:2;stroke-linecap:round;stroke-linejoin:round;stroke-opacity:1;stroke-miterlimit:4;stroke-dasharray:none"
      d="m 86.807332,879.14499 c 0.192527,-3.69737 0.12656,-7.11963 0.04283,-10.6328 -3.054774,0.1524 -3.561529,-4.88381 3.212516,-4.75619 6.021406,0.11345 11.586102,0.0975 14.736202,-0.0502 6.93434,-0.32528 6.02511,5.27504 3.01445,5.3418 0,0 0.32179,7.42063 0.33289,11.53284 0.01,3.56636 3.12522,8.67814 5.8396,12.72764 4.68121,6.98377 6.7827,16.51956 6.46487,25.17895 -0.34706,9.45559 -0.72503,27.02015 -0.72503,27.02015 -14.05363,-13.39345 -18.77798,-33.42735 -40.67994,-49.39179 4.081048,-8.0856 7.825579,-10.36461 7.761608,-16.9704 z"
      id="path4198"
      inkscape:connector-curvature="0"
      sodipodi:nodetypes="ccsscsssccc"/>
    <path
      style="fill:#ffffff;fill-rule:evenodd;stroke:none;stroke-width:2;stroke-linecap:round;stroke-linejoin:round;stroke-opacity:1;stroke-miterlimit:4;stroke-dasharray:none"
      d="m 74.830337,921.53283 0,71.06722 0.255394,0 c 7.699673,3.44564 36.557939,3.45751 44.693889,0 l 0,-0.2554 0,-21.55904 C 100.0565,962.66846 84.167402,929.45333 74.830337,921.53283 Z"
      id="path4206"
      inkscape:connector-curvature="0"
      sodipodi:nodetypes="ccccccc"/>
  </g>
</svg>
