<?xml version="1.0" encoding="UTF-8" standalone="no"?>
<!-- Created with Inkscape (http://www.inkscape.org/) -->

<svg
  xmlns:dc="http://purl.org/dc/elements/1.1/"
  xmlns:cc="http://creativecommons.org/ns#"
  xmlns:rdf="http://www.w3.org/1999/02/22-rdf-syntax-ns#"
  xmlns="http://www.w3.org/2000/svg"
  xmlns:sodipodi="http://sodipodi.sourceforge.net/DTD/sodipodi-0.dtd"
  xmlns:inkscape="http://www.inkscape.org/namespaces/inkscape"
  width="200"
  height="220"
  viewBox="0 0 200 220"
  id="svg2"
  version="1.1"
  inkscape:version="0.91 r"
  sodipodi:docname="cat-low-fodmap.svg">
  <defs
    id="defs4"/>
  <sodipodi:namedview
    id="base"
    pagecolor="#ffffff"
    bordercolor="#666666"
    borderopacity="1.0"
    inkscape:pageopacity="0.0"
    inkscape:pageshadow="2"
    inkscape:zoom="1.7484822"
    inkscape:cx="77.7783"
    inkscape:cy="140.92351"
    inkscape:document-units="px"
    inkscape:current-layer="layer1"
    showgrid="false"
    units="px"
    showguides="true"
    inkscape:guide-bbox="true"
    inkscape:window-width="1366"
    inkscape:window-height="716"
    inkscape:window-x="0"
    inkscape:window-y="0"
    inkscape:window-maximized="1"/>
  <metadata
    id="metadata7">
    <rdf:RDF>
      <cc:Work
        rdf:about="">
        <dc:format>image/svg+xml</dc:format>
        <dc:type
          rdf:resource="http://purl.org/dc/dcmitype/StillImage"/>
        <dc:title></dc:title>
      </cc:Work>
    </rdf:RDF>
  </metadata>
  <g
    inkscape:label="Vrstva 1"
    inkscape:groupmode="layer"
    id="layer1"
    transform="translate(0,-832.36216)">
    <g
      id="g4335"
      transform="translate(-0.0859375,29.91406)">
      <path
        id="path4333"
        d="M 97.386719,803.4481 A 96.300316,96.300316 0 0 0 1.0859375,899.74888 96.300316,96.300316 0 0 0 97.386719,996.04966 96.300316,96.300316 0 0 0 193.6875,899.74888 96.300316,96.300316 0 0 0 97.386719,803.4481 Z"
        style="fill:#ffffff;fill-opacity:1;stroke:#225500;stroke-width:2;stroke-linecap:round;stroke-linejoin:round;stroke-miterlimit:4;stroke-dasharray:none"
        inkscape:connector-curvature="0"/>
      <path
        id="path4331"
        d="m 97.386719,815.45591 a 84.292656,84.292656 0 0 1 6.271481,0.31445 c 5.96125,19.57761 6.39002,27.13961 3.17188,38.85157 -1.38369,5.03571 -2.288,5.22852 -4.25977,5.70507 -1.97176,0.47655 -6.299353,-0.007 -11.552732,-1.61328 -5.253379,-1.60583 -11.299542,-4.0486 -17.515625,-5.88476 -6.216083,-1.83615 -12.786813,-3.34641 -19.689453,-1.42188 -18.93424,5.27907 -28.050414,20.84911 -26.707031,34.73242 1.343382,13.88332 13.454374,26.57211 29.808593,25.08008 25.926146,-2.3653 57.464528,-10.42095 79.847658,2.64844 7.73812,4.51824 10.1523,11.58111 9.55664,16.45508 -0.29783,2.43698 -1.26669,4.16345 -2.53906,5.22656 -1.27237,1.06311 -2.989,1.82416 -6.41016,1.42383 -7.21504,-0.84428 -20.09345,-7.62695 -32.97461,-10.93945 -6.440578,-1.65625 -13.449623,-2.50773 -20.279296,0.25976 -6.829672,2.76749 -12.176517,9.27631 -15.02539,18.29688 -3.383575,10.71364 -4.316653,21.33711 -3.265625,33.25781 A 84.292656,84.292656 0 0 1 13.09375,899.74888 84.292656,84.292656 0 0 1 97.386719,815.45591 Z"
        style="fill:#55d400;fill-opacity:1;stroke:none;stroke-width:2;stroke-linecap:round;stroke-linejoin:round;stroke-miterlimit:4;stroke-dasharray:none"
        inkscape:connector-curvature="0"/>
      <path
        id="path4266"
        d="m 120.05078,818.64732 a 84.292656,84.292656 0 0 1 61.62891,81.10156 84.292656,84.292656 0 0 1 -84.292971,84.29297 84.292656,84.292656 0 0 1 -15.914063,-1.55469 c -1.891955,-13.23345 -1.387454,-22.90654 1.919922,-33.37891 1.978801,-6.2656 4.091242,-7.99461 6.355469,-8.91211 2.264226,-0.9175 5.9829,-0.90235 10.912113,0.36524 9.85841,2.53517 22.28074,9.82607 34.96679,11.31055 6.78762,0.79427 13.2106,-0.99977 17.77149,-4.81055 4.56088,-3.81079 7.11892,-9.27675 7.80859,-14.91992 1.37935,-11.28633 -4.39158,-23.93301 -16.88281,-31.22657 -29.55559,-17.25733 -65.328263,-6.77177 -88.773439,-4.63281 -8.621963,0.7866 -12.838431,-4.58937 -13.515625,-11.58789 -0.677193,-6.99852 2.491218,-15.12541 15.806641,-18.83789 1.978479,-0.55162 6.200989,-0.17934 11.410156,1.35938 5.209168,1.53872 11.222956,3.96143 17.380859,5.84375 6.157905,1.88233 12.593485,3.50742 19.460938,1.84765 6.86745,-1.65977 12.87581,-7.84773 15.20117,-16.31054 3.39388,-12.3515 3.11355,-23.36396 -1.24414,-39.94922 z"
        style="fill:#338000;fill-opacity:1;stroke:none;stroke-width:2;stroke-linecap:round;stroke-linejoin:round;stroke-miterlimit:4;stroke-dasharray:none"
        inkscape:connector-curvature="0"/>
    </g>
  </g>
</svg>
