<?xml version="1.0" encoding="UTF-8" standalone="no"?>
<!-- Created with Inkscape (http://www.inkscape.org/) -->

<svg
  xmlns:dc="http://purl.org/dc/elements/1.1/"
  xmlns:cc="http://creativecommons.org/ns#"
  xmlns:rdf="http://www.w3.org/1999/02/22-rdf-syntax-ns#"
  xmlns:sodipodi="http://sodipodi.sourceforge.net/DTD/sodipodi-0.dtd"
  xmlns:inkscape="http://www.inkscape.org/namespaces/inkscape"
  xmlns="http://www.w3.org/2000/svg"
  width="200"
  height="220"
  viewBox="0 0 200 220"
  id="svg2"
  version="1.1"
  inkscape:version="0.91 r"
  sodipodi:docname="cat-gluten-free.svg">
  <defs
    id="defs4"/>
  <sodipodi:namedview
    id="base"
    pagecolor="#ffffff"
    bordercolor="#666666"
    borderopacity="1.0"
    inkscape:pageopacity="0.0"
    inkscape:pageshadow="2"
    inkscape:zoom="1.7708205"
    inkscape:cx="91.254954"
    inkscape:cy="127.66811"
    inkscape:document-units="px"
    inkscape:current-layer="layer1"
    showgrid="false"
    units="px"
    showguides="true"
    inkscape:guide-bbox="true"
    inkscape:window-width="1366"
    inkscape:window-height="716"
    inkscape:window-x="0"
    inkscape:window-y="0"
    inkscape:window-maximized="1"/>
  <metadata
    id="metadata7">
    <rdf:RDF>
      <cc:Work
        rdf:about="">
        <dc:format>image/svg+xml</dc:format>
        <dc:type
          rdf:resource="http://purl.org/dc/dcmitype/StillImage"/>
        <dc:title></dc:title>
      </cc:Work>
    </rdf:RDF>
  </metadata>
  <g
    inkscape:label="Vrstva 1"
    inkscape:groupmode="layer"
    id="layer1"
    transform="translate(0,-832.36216)">
    <g
      id="g4143"
      transform="translate(-0.0274141,29.97259)">
      <path
        inkscape:connector-curvature="0"
        id="path4136"
        d="m 97.413695,803.38957 c -53.161109,0 -96.3862809,43.22719 -96.3862809,96.38829 0,0.45356 0.011788,0.9044 0.01806,1.35651 -0.00232,0.19481 -0.011155,0.38632 -0.01204,0.58193 l 0.01806,0 c 0.5164823,26.05123 11.4127089,49.59407 28.7134119,66.65949 l 4.918342,-12.35304 C 21.603712,941.43692 13.533072,922.26139 13.193842,901.16446 c 0.147741,-10.77985 2.89457,-19.38607 7.073503,-25.34422 4.257644,-6.07035 9.826152,-9.52102 16.605178,-10.37045 0.847379,-0.10618 1.721236,-0.16807 2.618702,-0.18261 13.462004,-0.21799 32.355706,10.13189 50.600139,38.77083 20.929976,32.85454 45.916136,46.55679 67.137086,44.25306 3.89868,-0.42325 7.59561,-1.42024 11.03668,-2.9157 -14.97752,23.25502 -41.07686,38.6404 -70.851435,38.6404 -12.448846,0 -24.246973,-2.70818 -34.869868,-7.53504 l -4.52905,11.26142 c 12.033221,5.40931 25.369297,8.42198 39.398918,8.42198 53.161105,0 96.386285,-43.22516 96.386285,-96.38627 0,-6.88356 -0.72983,-13.59856 -2.10701,-20.07672 l -11.26343,5.70296 c 0.79993,4.67068 1.22207,9.4715 1.22207,14.37376 0,0.49521 -0.0116,0.98775 -0.0201,1.48092 l -0.0261,0 c 0,1.28008 -0.0404,2.52569 -0.1184,3.74043 -0.003,0.0575 -0.008,0.115 -0.0121,0.17257 -1.25759,18.66559 -11.57914,29.52373 -25.55691,31.04115 -14.92809,1.62058 -36.17505,-8.24403 -55.57868,-38.70261 -18.26378,-28.66926 -38.727625,-42.89524 -57.196058,-44.29518 -2.638351,-0.19999 -5.235123,-0.13826 -7.779853,0.18059 -3.562677,0.44643 -6.961646,1.43814 -10.137686,2.89161 14.730623,-24.43681 41.517645,-40.74941 72.187872,-40.74941 18.096545,0 34.828265,5.69767 48.543305,15.37309 3.31951,-3.36941 6.79393,-5.65369 10.34638,-7.39257 -16.29645,-12.61251 -36.7281,-20.12888 -58.889685,-20.12888 z"
        style="color:#000000;font-style:normal;font-variant:normal;font-weight:normal;font-stretch:normal;font-size:medium;line-height:normal;font-family:sans-serif;text-indent:0;text-align:start;text-decoration:none;text-decoration-line:none;text-decoration-style:solid;text-decoration-color:#000000;letter-spacing:normal;word-spacing:normal;text-transform:none;direction:ltr;block-progression:tb;writing-mode:lr-tb;baseline-shift:baseline;text-anchor:start;white-space:normal;clip-rule:nonzero;display:inline;overflow:visible;visibility:visible;opacity:1;isolation:auto;mix-blend-mode:normal;color-interpolation:sRGB;color-interpolation-filters:linearRGB;solid-color:#000000;solid-opacity:1;fill:#338000;fill-opacity:1;fill-rule:nonzero;stroke:#225500;stroke-width:2;stroke-linecap:round;stroke-linejoin:round;stroke-miterlimit:4;stroke-dasharray:none;stroke-dashoffset:0;stroke-opacity:1;color-rendering:auto;image-rendering:auto;shape-rendering:auto;text-rendering:auto;enable-background:accumulate"/>
      <path
        inkscape:connector-curvature="0"
        id="path4170"
        d="m 60.497025,888.5064 c -6.580426,5.50786 -12.126121,11.84348 -20.45196,15.95502 -0.35319,8.18654 -3.321592,15.16602 -8.702919,21.03189 17.300525,-4.53969 19.872254,-13.04481 28.139505,-20.01652 5.416747,9.52522 3.289749,20.50164 -0.449494,31.78762 -15.978667,20.96472 -27.42345,44.87243 -34.562848,72.27819 -2.714529,11.9045 16.31426,13.7912 18.535592,2.7271 7.189093,-40.87344 22.987458,-71.41504 44.702542,-94.85724 l -4.107649,-6.91499 c -7.042255,6.43622 -13.512607,13.20667 -19.430567,20.32555 4.742162,-20.43979 -0.914826,-32.61988 -3.672202,-42.31662 z"
        style="fill:#338000;fill-rule:evenodd;stroke:#225500;stroke-width:2;stroke-linecap:butt;stroke-linejoin:round;stroke-miterlimit:4;stroke-dasharray:none;stroke-opacity:1"/>
      <path
        sodipodi:nodetypes="cscsc"
        inkscape:connector-curvature="0"
        id="path4199"
        d="m 107.83289,890.60948 c 3.29113,-15.71163 2.7565,-20.2501 4.92309,-25.10926 3.3841,-7.58975 11.80074,-11.83118 21.23958,-14.77808 -5.56451,4.83763 -6.89071,12.58518 -8.65248,22.27454 -1.73294,9.53065 -9.63204,15.06049 -17.51019,17.6128 z"
        style="fill:#338000;fill-rule:evenodd;stroke:#225500;stroke-width:2;stroke-linecap:butt;stroke-linejoin:round;stroke-miterlimit:4;stroke-dasharray:none;stroke-opacity:1"/>
      <path
        sodipodi:nodetypes="ccsc"
        inkscape:connector-curvature="0"
        id="path4201"
        d="m 111.5647,897.87506 c 5.09176,12.40014 30.6816,11.54181 38.97742,3.72058 -7.36766,-0.33901 -13.82848,-2.22795 -19.84305,-4.78361 -5.68145,-2.4141 -13.52586,-2.23006 -19.13437,1.06303 z"
        style="fill:#338000;fill-rule:evenodd;stroke:#225500;stroke-width:2;stroke-linecap:butt;stroke-linejoin:round;stroke-miterlimit:4;stroke-dasharray:none;stroke-opacity:1"/>
      <path
        sodipodi:nodetypes="cscsc"
        inkscape:connector-curvature="0"
        id="path4203"
        d="m 125.56114,886.35899 c -0.0641,-0.5132 14.28862,-12.09872 21.96909,-9.39002 7.62379,2.68871 24.70534,1.38792 24.80383,1.24019 0,0 -12.37461,16.44049 -24.09515,12.93343 -11.44371,-3.42423 -22.67777,-4.7836 -22.67777,-4.7836 z"
        style="fill:#338000;fill-rule:evenodd;stroke:#225500;stroke-width:2;stroke-linecap:butt;stroke-linejoin:round;stroke-miterlimit:4;stroke-dasharray:none;stroke-opacity:1"/>
      <path
        sodipodi:nodetypes="cscsc"
        inkscape:connector-curvature="0"
        id="path4205"
        d="m 136.3685,871.47671 c 1.74227,-8.31732 0.7302,-16.67981 3.89775,-23.38647 5.14955,-10.90307 15.61896,-15.21107 22.14627,-16.654 -5.2027,8.23048 -6.35352,15.35319 -7.97265,21.4376 -2.86627,10.77097 -10.56007,15.5707 -18.07137,18.60287 z"
        style="fill:#338000;fill-rule:evenodd;stroke:#225500;stroke-width:2;stroke-linecap:butt;stroke-linejoin:round;stroke-miterlimit:4;stroke-dasharray:none;stroke-opacity:1"/>
      <path
        sodipodi:nodetypes="cscsc"
        inkscape:connector-curvature="0"
        id="path4207"
        d="m 154.26269,867.9333 c 5.60932,-4.96943 11.0956,-11.33888 24.44949,-9.92154 11.4635,1.21672 14.54228,-1.08755 19.6659,-3.01189 -2.79343,8.76943 -5.47107,16.54724 -20.37458,15.23664 -7.41883,-0.65241 -14.85056,-1.88981 -23.74081,-2.30321 z"
        style="fill:#338000;fill-rule:evenodd;stroke:#225500;stroke-width:2;stroke-linecap:butt;stroke-linejoin:round;stroke-miterlimit:4;stroke-dasharray:none;stroke-opacity:1"/>
      <path
        sodipodi:nodetypes="cscc"
        inkscape:connector-curvature="0"
        id="path4209"
        d="m 165.07008,850.21629 c 12.36764,2.08753 16.9037,-2.28638 18.24853,-6.90964 2.18102,-7.49794 3.41835,-11.1513 6.90964,-16.12249 -12.59849,-0.50956 -23.28303,1.62875 -25.15817,23.03213 z"
        style="fill:#338000;fill-rule:evenodd;stroke:#225500;stroke-width:2;stroke-linecap:butt;stroke-linejoin:round;stroke-miterlimit:4;stroke-dasharray:none;stroke-opacity:1"/>
    </g>
  </g>
</svg>
