<?xml version="1.0" encoding="UTF-8" standalone="no"?>
<!-- Created with Inkscape (http://www.inkscape.org/) -->

<svg
  xmlns:dc="http://purl.org/dc/elements/1.1/"
  xmlns:cc="http://creativecommons.org/ns#"
  xmlns:rdf="http://www.w3.org/1999/02/22-rdf-syntax-ns#"
  xmlns:sodipodi="http://sodipodi.sourceforge.net/DTD/sodipodi-0.dtd"
  xmlns:inkscape="http://www.inkscape.org/namespaces/inkscape"
  xmlns="http://www.w3.org/2000/svg"
  width="575"
  height="222"
  viewBox="0 0 575.00001 222.00001"
  id="svg3742"
  version="1.1"
  inkscape:version="0.91 r"
  sodipodi:docname="erime-logo-small.svg">
  <defs
    id="defs3744"/>
  <sodipodi:namedview
    id="base"
    pagecolor="#ffffff"
    bordercolor="#666666"
    borderopacity="1.0"
    inkscape:pageopacity="0.0"
    inkscape:pageshadow="2"
    inkscape:zoom="1.3574324"
    inkscape:cx="296.78791"
    inkscape:cy="161.42857"
    inkscape:document-units="px"
    inkscape:current-layer="layer1"
    showgrid="false"
    inkscape:window-width="1366"
    inkscape:window-height="716"
    inkscape:window-x="0"
    inkscape:window-y="0"
    inkscape:window-maximized="1"
    units="px"/>
  <metadata
    id="metadata3747">
    <rdf:RDF>
      <cc:Work
        rdf:about="">
        <dc:format>image/svg+xml</dc:format>
        <dc:type
          rdf:resource="http://purl.org/dc/dcmitype/StillImage"/>
        <dc:title></dc:title>
      </cc:Work>
    </rdf:RDF>
  </metadata>
  <g
    inkscape:label="Vrstva 1"
    inkscape:groupmode="layer"
    id="layer1"
    transform="translate(0,-830.36216)">
    <g
      id="g4188"
      transform="translate(-2.17972e-7,102.77232)">
      <g
        style="fill:#000000;stroke:#000000"
        transform="matrix(0.94956168,0,0,1.0337715,-50.859326,374.30009)"
        id="g3553">
        <path
          sodipodi:nodetypes="cssccccccscccccccccc"
          inkscape:connector-curvature="0"
          id="path3555"
          d="m 458.82562,397.2512 c 21.80555,35.89998 35.6849,50.34881 40.2453,102.18849 2.41477,27.44959 34.28639,25.89589 48.20992,20.84194 18.29499,-6.6407 23.5746,-11.03117 43.23716,-15.04237 -0.80377,7.26821 -1.88768,8.67649 -0.63381,14.91588 3.86337,0.75395 7.66382,1.82245 12.04247,0 7.28064,-21.52186 20.18531,-33.43686 39.2965,-51.57857 -15.17394,5.20787 -30.93251,6.46974 -40.56413,1.26763 -2.22108,5.58505 -4.61693,10.29623 -6.33814,18.38062 l -32.13,3.80289 c -10.43181,1.2347 -7.3906,-16.61355 -15.77273,-33.35957 9.43395,-2.12772 14.21421,-3.23338 22.05296,-3.0411 0.49765,-6.68597 0.0368,-10.58024 -3.3057,-15.57212 -9.09041,-0.2188 -16.67503,2.03706 -23.74772,5.47172 -4.10876,-8.92672 -14.67253,-27.30745 -24.64285,-36.95351 22.04456,-6.82239 39.60729,-9.46482 55.41455,-7.52328 6.2465,7.08609 11.15452,13.88847 14.23004,21.25826 4.01416,0.80386 8.02832,-0.0338 12.04248,-1.90143 -4.45471,-19.47739 -12.6882,-32.65682 -22.18351,-43.73321 -32.93503,-2.09556 -75.34576,7.32832 -117.45279,20.57773 z"
          style="fill:#000000;fill-rule:evenodd;stroke:#000000;stroke-width:4;stroke-linecap:round;stroke-linejoin:round;stroke-miterlimit:4;stroke-dasharray:none;stroke-opacity:1"/>
        <path
          sodipodi:nodetypes="cccsscccccsc"
          inkscape:connector-curvature="0"
          id="path3557"
          d="m 404.83188,554.24707 c 13.80208,-5.45199 30.24851,-9.57635 49.37354,-8.6408 -20.02829,-22.18678 -31.62071,-34.70312 -33.62087,-59.35687 4.37464,14.96287 10.14724,19.70671 19.69449,26.06888 6.5085,4.33718 16.47183,5.36528 25.45557,-0.41895 10.85322,-6.9879 21.26964,-31.25717 23.15212,-43.8888 6.9526,24.35676 -6.76062,53.11069 -21.59033,72.44076 17.86916,-6.11547 32.05013,-4.5715 50.95275,-3.45277 11.85561,-46.76486 1.38074,-109.7392 -33.20595,-129.01446 -28.09131,15.64546 -32.74502,63.89404 -32.74502,63.89404 2.12496,-21.18382 -8.19092,-61.32108 -20.765,-59.95832 -59.43347,6.44127 -48.58842,116.98302 -26.7013,142.32729 z"
          style="fill:#000000;fill-rule:evenodd;stroke:#000000;stroke-width:4;stroke-linecap:round;stroke-linejoin:round;stroke-miterlimit:4;stroke-dasharray:none;stroke-opacity:1"/>
        <ellipse
          ry="38.339535"
          rx="36.765541"
          cy="389.99429"
          cx="407.93698"
          id="ellipse3559"
          style="fill:#000000;fill-opacity:1;stroke:#000000;stroke-width:4;stroke-linecap:round;stroke-linejoin:round;stroke-miterlimit:4;stroke-dasharray:none"/>
        <path
          sodipodi:nodetypes="ccccssccccscccccccc"
          inkscape:connector-curvature="0"
          id="path3561"
          d="m 190.53858,358.631 -13.94392,8.8734 20.28206,24.08495 c -6.82349,0.36828 -13.66591,0.78387 -19.01443,-2.53526 -35.0417,32.75035 -58.03764,66.97929 -65.2829,102.67795 -4.31707,21.27099 -1.49076,38.9511 15.21155,39.93031 76.1149,4.46243 151.06518,-25.6783 228.80704,-3.16907 20.96779,-21.18052 41.39245,-50.5356 55.14186,-81.76207 -7.35732,-11.33688 -32.85633,-14.94468 -48.16991,-11.40866 0.40026,26.12699 -11.5447,49.35666 -27.25402,74.1563 -37.54389,-6.87725 -70.81246,-14.42981 -126.12908,-12.04248 -58.92154,2.54291 -53.55241,-16.02977 -37.39506,-35.49361 l 37.39506,2.53526 11.40866,-15.21155 -36.76124,-8.23959 c 8.63673,-11.9328 17.57727,-22.65037 27.88783,-27.88784 l 20.28207,22.81732 c 13.54521,-12.82798 28.08846,-23.16084 45.00082,-27.57092 -31.67313,-10.29065 -58.92263,-31.64036 -87.46639,-49.75444 z"
          style="fill:#000000;fill-rule:evenodd;stroke:#000000;stroke-width:4;stroke-linecap:round;stroke-linejoin:round;stroke-miterlimit:4;stroke-dasharray:none;stroke-opacity:1"/>
        <path
          sodipodi:nodetypes="ccssssccccssc"
          inkscape:connector-curvature="0"
          id="path3563"
          d="m 246.89367,415.63435 c -0.60135,7.4385 5.07733,12.02244 12.21522,15.9431 14.66243,-14.41588 32.92515,-24.87615 51.82161,-31.15748 24.30346,-8.07866 55.66214,16.98538 7.67181,35.32202 -10.67758,4.07981 -26.87191,7.80012 -42.83526,8.32908 -0.21966,0.008 -6.1571,1.81501 -5.35441,7.1392 3.49301,23.16873 17.44085,50.18906 35.10112,73.77185 7.63208,8.32907 11.19551,16.65816 12.49361,24.98723 26.21376,-5.69769 45.30384,-2.49079 65.44277,-0.59493 -28.87843,-21.21128 -55.1046,-47.39553 -71.3921,-92.2148 24.41336,-5.16483 57.56818,-0.95836 70.79716,-37.48085 8.63819,-23.84826 -9.04762,-49.89589 -48.18967,-48.18967 -30.31141,1.32129 -62.65722,23.69236 -87.77186,44.14525 z"
          style="fill:#000000;fill-rule:evenodd;stroke:#000000;stroke-width:4;stroke-linecap:round;stroke-linejoin:round;stroke-miterlimit:4;stroke-dasharray:none;stroke-opacity:1"/>
        <path
          sodipodi:nodetypes="ccccc"
          inkscape:connector-curvature="0"
          id="path3565"
          d="m 248.55773,446.00914 c -3.90459,37.08748 -18.4524,70.73264 -34.25293,103.97263 19.35335,-3.44146 35.40945,-2.40372 51.90966,-1.96928 -3.11413,-33.71643 -5.18159,-67.36176 -1.84059,-100.63966 -3.81342,-3.78219 -9.98115,-3.95663 -15.81614,-1.36371 z"
          style="fill:#000000;fill-rule:evenodd;stroke:#000000;stroke-width:4;stroke-linecap:round;stroke-linejoin:round;stroke-miterlimit:4;stroke-dasharray:none;stroke-opacity:1"/>
      </g>
      <g
        id="g3567"
        transform="translate(-61.637026,384.19252)">
        <path
          style="fill:#ff9955;fill-opacity:1;fill-rule:evenodd;stroke:#000000;stroke-width:4;stroke-linecap:round;stroke-linejoin:round;stroke-miterlimit:4;stroke-dasharray:none;stroke-opacity:1"
          d="m 450.82562,391.2512 c 21.80555,35.89998 35.6849,50.34881 40.2453,102.18849 2.41477,27.44959 34.28639,25.89589 48.20992,20.84194 18.29499,-6.6407 23.5746,-11.03117 43.23716,-15.04237 -0.80377,7.26821 -1.88768,8.67649 -0.63381,14.91588 3.86337,0.75395 7.66382,1.82245 12.04247,0 7.28064,-21.52186 20.18531,-33.43686 39.2965,-51.57857 -15.17394,5.20787 -30.93251,6.46974 -40.56413,1.26763 -2.22108,5.58505 -4.61693,10.29623 -6.33814,18.38062 l -32.13,3.80289 c -10.43181,1.2347 -7.3906,-16.61355 -15.77273,-33.35957 9.43395,-2.12772 14.21421,-3.23338 22.05296,-3.0411 0.49765,-6.68597 0.0368,-10.58024 -3.3057,-15.57212 -9.09041,-0.2188 -16.67503,2.03706 -23.74772,5.47172 -4.10876,-8.92672 -14.67253,-27.30745 -24.64285,-36.95351 22.04456,-6.82239 39.60729,-9.46482 55.41455,-7.52328 6.2465,7.08609 11.15452,13.88847 14.23004,21.25826 4.01416,0.80386 8.02832,-0.0338 12.04248,-1.90143 -4.45471,-19.47739 -12.6882,-32.65682 -22.18351,-43.73321 -32.93503,-2.09556 -75.34576,7.32832 -117.45279,20.57773 z"
          id="path3569"
          inkscape:connector-curvature="0"
          sodipodi:nodetypes="cssccccccscccccccccc"/>
        <path
          style="fill:#f4eed7;fill-opacity:1;fill-rule:evenodd;stroke:#000000;stroke-width:4;stroke-linecap:round;stroke-linejoin:round;stroke-miterlimit:4;stroke-dasharray:none;stroke-opacity:1"
          d="m 396.83188,548.24707 c 13.80208,-5.45199 30.24851,-9.57635 49.37354,-8.6408 -20.02829,-22.18678 -31.62071,-34.70312 -33.62087,-59.35687 4.37464,14.96287 10.14724,19.70671 19.69449,26.06888 6.5085,4.33718 16.47183,5.36528 25.45557,-0.41895 10.85322,-6.9879 21.26964,-31.25717 23.15212,-43.8888 6.9526,24.35676 -6.76062,53.11069 -21.59033,72.44076 17.86916,-6.11547 32.05013,-4.5715 50.95275,-3.45277 11.85561,-46.76486 1.38074,-109.7392 -33.20595,-129.01446 -28.09131,15.64546 -32.74502,63.89404 -32.74502,63.89404 2.12496,-21.18382 -8.19092,-61.32108 -20.765,-59.95832 -59.43347,6.44127 -48.58842,116.98302 -26.7013,142.32729 z"
          id="path3571"
          inkscape:connector-curvature="0"
          sodipodi:nodetypes="cccsscccccsc"/>
        <ellipse
          style="fill:#aa4400;fill-opacity:1;stroke:#000000;stroke-width:4;stroke-linecap:round;stroke-linejoin:round;stroke-miterlimit:4;stroke-dasharray:none"
          id="ellipse3573"
          cx="399.93698"
          cy="383.99429"
          rx="36.765541"
          ry="38.339535"/>
        <path
          style="fill:#aa4400;fill-opacity:1;fill-rule:evenodd;stroke:#000000;stroke-width:4;stroke-linecap:round;stroke-linejoin:round;stroke-miterlimit:4;stroke-dasharray:none;stroke-opacity:1"
          d="m 182.53858,352.631 -13.94392,8.8734 20.28206,24.08495 c -6.82349,0.36828 -13.66591,0.78387 -19.01443,-2.53526 -35.0417,32.75035 -58.03764,66.97929 -65.2829,102.67795 -4.31707,21.27099 -1.49076,38.9511 15.21155,39.93031 76.1149,4.46243 151.06518,-25.6783 228.80704,-3.16907 20.96779,-21.18052 41.39245,-50.5356 55.14186,-81.76207 -7.35732,-11.33688 -32.85633,-14.94468 -48.16991,-11.40866 0.40026,26.12699 -11.5447,49.35666 -27.25402,74.1563 -37.54389,-6.87725 -70.81246,-14.42981 -126.12908,-12.04248 -58.92154,2.54291 -53.55241,-16.02977 -37.39506,-35.49361 l 37.39506,2.53526 11.40866,-15.21155 -36.76124,-8.23959 c 8.63673,-11.9328 17.57727,-22.65037 27.88783,-27.88784 l 20.28207,22.81732 c 13.54521,-12.82798 28.08846,-23.16084 45.00082,-27.57092 -31.67313,-10.29065 -58.92263,-31.64036 -87.46639,-49.75444 z"
          id="path3575"
          inkscape:connector-curvature="0"
          sodipodi:nodetypes="ccccssccccscccccccc"/>
        <path
          style="fill:#ff9955;fill-opacity:1;fill-rule:evenodd;stroke:#000000;stroke-width:4;stroke-linecap:round;stroke-linejoin:round;stroke-miterlimit:4;stroke-dasharray:none;stroke-opacity:1"
          d="m 238.89367,409.63435 c -0.60135,7.4385 5.07733,12.02244 12.21522,15.9431 14.66243,-14.41588 32.92515,-24.87615 51.82161,-31.15748 24.30346,-8.07866 55.66214,16.98538 7.67181,35.32202 -10.67758,4.07981 -26.87191,7.80012 -42.83526,8.32908 -0.21966,0.008 -6.1571,1.81501 -5.35441,7.1392 3.49301,23.16873 17.44085,50.18906 35.10112,73.77185 7.63208,8.32907 11.19551,16.65816 12.49361,24.98723 26.21376,-5.69769 45.30384,-2.49079 65.44277,-0.59493 -28.87843,-21.21128 -55.1046,-47.39553 -71.3921,-92.2148 24.41336,-5.16483 57.56818,-0.95836 70.79716,-37.48085 8.63819,-23.84826 -9.04762,-49.89589 -48.18967,-48.18967 -30.31141,1.32129 -62.65722,23.69236 -87.77186,44.14525 z"
          id="path3577"
          inkscape:connector-curvature="0"
          sodipodi:nodetypes="ccssssccccssc"/>
        <path
          style="fill:#ff9955;fill-opacity:1;fill-rule:evenodd;stroke:#000000;stroke-width:4;stroke-linecap:round;stroke-linejoin:round;stroke-miterlimit:4;stroke-dasharray:none;stroke-opacity:1"
          d="m 240.55773,440.00914 c -3.90459,37.08748 -18.4524,70.73264 -34.25293,103.97263 19.35335,-3.44146 35.40945,-2.40372 51.90966,-1.96928 -3.11413,-33.71643 -5.18159,-67.36176 -1.84059,-100.63966 -3.81342,-3.78219 -9.98115,-3.95663 -15.81614,-1.36371 z"
          id="path3579"
          inkscape:connector-curvature="0"
          sodipodi:nodetypes="ccccc"/>
      </g>
      <path
        sodipodi:nodetypes="cc"
        inkscape:connector-curvature="0"
        id="path3581"
        d="m 506.53066,735.21428 c 11.2885,1.62676 19.0775,7.73041 22.8692,19.25828"
        style="fill:none;fill-rule:evenodd;stroke:#000000;stroke-width:7;stroke-linecap:round;stroke-linejoin:round;stroke-miterlimit:4;stroke-dasharray:none;stroke-opacity:1"/>
      <path
        sodipodi:nodetypes="cc"
        inkscape:connector-curvature="0"
        id="path3583"
        d="m 530.60356,732.40578 c 4.4104,0.97888 7.9674,6.06902 8.4255,9.22793"
        style="fill:none;fill-rule:evenodd;stroke:#000000;stroke-width:7;stroke-linecap:round;stroke-linejoin:round;stroke-miterlimit:4;stroke-dasharray:none;stroke-opacity:1"/>
      <path
        sodipodi:nodetypes="cc"
        inkscape:connector-curvature="0"
        id="path3585"
        d="m 20.204574,891.29869 c -6.1441,15.33932 3.931,31.11253 20.863101,33.70199"
        style="fill:none;fill-rule:evenodd;stroke:#000000;stroke-width:7;stroke-linecap:round;stroke-linejoin:round;stroke-miterlimit:4;stroke-dasharray:none;stroke-opacity:1"/>
      <path
        sodipodi:nodetypes="cc"
        inkscape:connector-curvature="0"
        id="path3587"
        d="m 4.958474,916.9764 c -0.4511,5.3606 2.833,12.37421 8.8267,14.04249"
        style="fill:none;fill-rule:evenodd;stroke:#000000;stroke-width:7;stroke-linecap:round;stroke-linejoin:round;stroke-miterlimit:4;stroke-dasharray:none;stroke-opacity:1"/>
    </g>
  </g>
</svg>
