<?xml version="1.0" ?>
<svg viewBox="0 0 64 64" xmlns="http://www.w3.org/2000/svg">
  <title/>
  <path
    d="M51.572,56H42a3,3,0,0,1-3-3V37.01h5.2l.778-6.037L39,31V26.94A2.868,2.868,0,0,1,41.992,24H45V19.238A38.735,38.735,0,0,0,40.53,19C35.6,19,33,21.6,33,26.521v4.452H27V37.01h6V53a3,3,0,0,1-2.994,3H12.429A4.433,4.433,0,0,1,8,51.572V51a2,2,0,0,1,4,0v.572a.429.429,0,0,0,.429.428H29V41.01H27a4,4,0,0,1-4-4V30.973a4,4,0,0,1,4-4h2v-.452C29,19.415,33.418,15,40.53,15a42.308,42.308,0,0,1,5,.273A4.012,4.012,0,0,1,49,19.238v4.941a3.826,3.826,0,0,1-2,3.356,3.853,3.853,0,0,1,.976.8,4,4,0,0,1,.964,3.153l-.779,6.038A4.009,4.009,0,0,1,44.2,41.01H43V52h8.572A.428.428,0,0,0,52,51.572V12.428A.428.428,0,0,0,51.572,12H12.429a.429.429,0,0,0-.429.428V42.967a2,2,0,0,1-4,0V12.428A4.433,4.433,0,0,1,12.429,8H51.572A4.433,4.433,0,0,1,56,12.428V51.572A4.433,4.433,0,0,1,51.572,56Z"/>
</svg>
