<?xml version="1.0" encoding="UTF-8" standalone="no"?>
<!-- Created with Inkscape (http://www.inkscape.org/) -->

<svg
  xmlns:dc="http://purl.org/dc/elements/1.1/"
  xmlns:cc="http://creativecommons.org/ns#"
  xmlns:rdf="http://www.w3.org/1999/02/22-rdf-syntax-ns#"
  xmlns:sodipodi="http://sodipodi.sourceforge.net/DTD/sodipodi-0.dtd"
  xmlns:inkscape="http://www.inkscape.org/namespaces/inkscape"
  xmlns="http://www.w3.org/2000/svg"
  width="125mm"
  height="53mm"
  viewBox="0 0 125 53"
  version="1.1"
  id="svg8"
  inkscape:version="0.92.2 (5c3e80d, 2017-08-06)"
  sodipodi:docname="home.svg">
  <defs
    id="defs2"/>
  <sodipodi:namedview
    id="base"
    pagecolor="#ffffff"
    bordercolor="#666666"
    borderopacity="1.0"
    inkscape:pageopacity="0.0"
    inkscape:pageshadow="2"
    inkscape:zoom="2.6274513"
    inkscape:cx="245.7531"
    inkscape:cy="97.709065"
    inkscape:document-units="mm"
    inkscape:current-layer="layer1"
    showgrid="false"
    inkscape:window-width="1920"
    inkscape:window-height="1019"
    inkscape:window-x="-9"
    inkscape:window-y="-9"
    inkscape:window-maximized="1"/>
  <metadata
    id="metadata5">
    <rdf:RDF>
      <cc:Work
        rdf:about="">
        <dc:format>image/svg+xml</dc:format>
        <dc:type
          rdf:resource="http://purl.org/dc/dcmitype/StillImage"/>
        <dc:title></dc:title>
      </cc:Work>
    </rdf:RDF>
  </metadata>
  <g
    inkscape:label="Layer 1"
    inkscape:groupmode="layer"
    id="layer1"
    transform="translate(0,-244)">
    <g
      id="g4536"
      transform="translate(-30.445662,136.71326)">
      <path
        id="path16"
        transform="scale(0.26458333)"
        d="m 386.75,510.10352 c -48.29565,-0.24163 -102.32675,12.01549 -152.51367,39.71484 5.87435,17.95158 16.46222,41.2079 50.57226,54.8125 31.34053,-6.00064 67.35382,-5.01841 101.98243,-6.33398 -37.99764,-28.00041 -7.77094,-57.93782 14.15429,-58.14063 33.90244,-0.3137 49.18007,36.10662 23.97266,60.97266 0,0 9.32067,2.17295 23.14648,2.61523 40.07154,-14.78759 49.9551,-40.96751 56.78516,-58.36328 C 477.60592,523.08433 435.04565,510.34515 386.75,510.10352 Z m -72.87891,35.51757 a 17.301501,14.63973 0 0 1 17.30079,14.64063 17.301501,14.63973 0 0 1 -17.30079,14.63867 17.301501,14.63973 0 0 1 -17.30273,-14.63867 17.301501,14.63973 0 0 1 17.30273,-14.64063 z"
        style="fill:#ffffff;stroke:#cccccc;stroke-width:0.99999994;stroke-linecap:round;stroke-linejoin:round;stroke-miterlimit:4;stroke-dasharray:none;stroke-opacity:1"
        inkscape:connector-curvature="0"/>
      <path
        sodipodi:nodetypes="caccacc"
        inkscape:connector-curvature="0"
        id="path18"
        d="m 34.329653,150.82865 c 24.480476,-5.07993 49.197175,-22.90904 75.065367,-20.73821 15.69559,1.31716 26.5971,14.41024 42.81195,19.99789 2.86347,1.20997 3.9033,-0.38083 1.55641,-1.92189 -19.08984,-9.546 -34.21339,-26.27558 -54.462755,-26.99663 -23.918035,-0.85169 -42.330931,22.71445 -66.43517,27.23138 -2.937666,0.99841 -2.883016,3.02746 1.464198,2.42746 z"
        style="fill:#ffffff;stroke:#cccccc;stroke-width:0.26458332;stroke-linecap:round;stroke-linejoin:round;stroke-miterlimit:4;stroke-dasharray:none;stroke-opacity:1"/>
      <path
        sodipodi:nodetypes="ccccc"
        inkscape:connector-curvature="0"
        id="path28"
        d="m 74.101431,127.31757 -1.455589,-4.56598 c -2.133199,-0.31528 -4.420536,-0.43788 -7.205457,0.0615 l -1.209574,10.14348 c 2.198484,-1.42607 6.238462,-3.94375 9.87062,-5.639 z"
        style="fill:#ffffff;stroke:#cccccc;stroke-width:0.26458332;stroke-linecap:round;stroke-linejoin:round;stroke-miterlimit:4;stroke-dasharray:none;stroke-opacity:1"/>
      <path
        sodipodi:nodetypes="cscsacscssc"
        inkscape:connector-curvature="0"
        id="path32"
        d="m 68.782702,121.22558 c -3.194182,-3.4373 -3.069554,-6.39014 -1.872097,-7.80862 1.180753,-1.3987 4.696659,-2.94941 5.397316,-0.7628 -8.842526,0.0156 -1.946497,10.21808 3.328705,3.73277 1.738444,-2.13725 0.198025,-7.22187 -2.479485,-8.31856 -2.291685,-0.93866 -5.292796,1.26018 -6.507017,3.58538 -1.981515,-5.78679 -6.693355,-4.06681 -8.269024,-2.76323 -3.847696,3.18327 -7.840129,7.78545 -15.167466,3.92466 1.904023,1.2466 4.093193,4.07163 9.27285,3.5557 2.01947,-0.20115 6.489309,-1.08405 9.672696,-1.89756 3.019454,-0.77162 0.813952,4.30408 6.623522,6.75226 z"
        style="fill:#ffffff;stroke:#cccccc;stroke-width:0.26458332;stroke-linecap:round;stroke-linejoin:round;stroke-miterlimit:4;stroke-dasharray:none;stroke-opacity:1"/>
    </g>
  </g>
</svg>
